<?xml version="1.0" encoding="UTF-8"?>
<svg width="51px" height="24px" viewBox="0 0 51 24" version="1.1" xmlns="http://www.w3.org/2000/svg" xmlns:xlink="http://www.w3.org/1999/xlink">
    <!-- Generator: Sketch 47.1 (45422) - http://www.bohemiancoding.com/sketch -->
    <title>Page 1</title>
    <desc>Created with Sketch.</desc>
    <defs>
        <polygon id="path-1" points="25.2001 24 50.4 24 50.4 0 25.2001 0 0.0002 0 0.0002 24"></polygon>
        <polygon id="path-3" points="0.9994 11 15.4 11 15.4 0.2002 0.9994 0.2002"></polygon>
    </defs>
    <g id="登录注册首页demo" stroke="none" stroke-width="1" fill="none" fill-rule="evenodd">
        <g id="Page-1">
            <g id="Group-3">
                <mask id="mask-2" fill="white">
                    <use xlink:href="#path-1"></use>
                </mask>
                <g id="Clip-2"></g>
                <path d="M33.6002,6 C33.6002,6.663 33.0632,7.2 32.4002,7.2 L32.4002,12 C33.0632,12 33.6002,12.537 33.6002,13.2 C33.6002,13.862 33.0632,14.4 32.4002,14.4 L32.4002,19.2 C32.4002,21.851 30.2502,24 27.6002,24 C26.9372,24 26.4002,23.463 26.4002,22.8 C26.4002,22.137 26.9372,21.6 27.6002,21.6 C28.9252,21.6 29.9992,20.525 29.9992,19.2 L29.9992,14.4 L27.6002,14.4 C26.9372,14.4 26.4002,13.862 26.4002,13.2 C26.4002,12.537 26.9372,12 27.6002,12 L29.9992,12 L29.9992,7.2 L27.6002,7.2 C26.9372,7.2 26.4002,6.663 26.4002,6 C26.4002,5.337 26.9372,4.8 27.6002,4.8 L29.9992,4.8 L29.9992,1.2 C29.9992,0.537 30.5372,0 31.2002,0 C31.8632,0 32.4002,0.537 32.4002,1.2 L32.4002,4.8 C33.0632,4.8 33.6002,5.337 33.6002,6 L33.6002,6 Z M22.8002,2.4 C23.4632,2.4 24.0002,2.937 24.0002,3.6 C24.0002,4.263 23.4632,4.8 22.8002,4.8 L14.4002,4.8 C13.7372,4.8 13.2002,4.263 13.2002,3.6 C13.2002,2.937 13.7372,2.4 14.4002,2.4 L22.8002,2.4 Z M49.2002,1.2 C49.8632,1.2 50.4002,1.737 50.4002,2.4 L50.4002,6 C50.4002,8.651 48.2502,10.8 45.6002,10.8 L44.4002,10.8 C43.7372,10.8 43.2002,10.263 43.2002,9.6 C43.2002,8.937 43.7372,8.4 44.4002,8.4 L45.6002,8.4 C46.9252,8.4 47.9992,7.325 47.9992,6 L47.9992,3.6 L40.8002,3.6 L40.8002,6 C40.8002,8.1 39.4522,9.885 37.5732,10.536 C36.8022,10.804 35.9992,10.21 35.9992,9.395 L35.9992,9.394 C35.9992,8.895 36.3042,8.433 36.7772,8.271 C37.7212,7.949 38.4002,7.054 38.4002,6 L38.4002,3.6 L37.2002,3.6 C36.5382,3.6 35.9992,3.062 35.9992,2.4 C35.9992,1.737 36.5382,1.2 37.2002,1.2 L49.2002,1.2 Z M18.0002,7.2 C19.9882,7.2 21.6002,8.812 21.6002,10.8 L21.6002,19.2 C21.6002,21.851 19.4512,24 16.8002,24 L15.6002,24 C14.9372,24 14.4002,23.463 14.4002,22.8 C14.4002,22.137 14.9372,21.6 15.6002,21.6 L16.8002,21.6 C18.1252,21.6 19.2002,20.525 19.2002,19.2 L19.2002,10.8 C19.2002,10.137 18.6622,9.6 18.0002,9.6 L7.2002,9.6 L7.2002,9.599 C7.2002,9.599 7.2002,9.6 7.1992,9.6 L7.2002,9.6 L7.2002,12 L15.6002,12 C16.2632,12 16.8002,12.537 16.8002,13.2 C16.8002,13.862 16.2632,14.4 15.6002,14.4 L7.2002,14.4 L7.2002,16.8 L15.6002,16.8 C16.2632,16.8 16.8002,17.337 16.8002,18 C16.8002,18.663 16.2632,19.2 15.6002,19.2 L7.2002,19.2 C7.2002,21.3 5.8512,23.085 3.9742,23.736 C3.2022,24.004 2.4002,23.41 2.4002,22.594 C2.4002,22.095 2.7042,21.633 3.1772,21.472 C4.1212,21.148 4.8002,20.254 4.8002,19.2 L4.8002,12 L4.8002,11.997 C3.8332,12.724 2.7542,13.309 1.5922,13.719 C0.8152,13.993 0.0002,13.407 0.0002,12.583 C0.0002,12.079 0.3142,11.625 0.7892,11.457 C3.7842,10.403 6.0982,7.905 6.8972,4.8 L1.2002,4.8 C0.5372,4.8 0.0002,4.263 0.0002,3.6 C0.0002,2.937 0.5372,2.4 1.2002,2.4 L7.2002,2.4 L7.2002,1.2 C7.2002,0.537 7.7372,0 8.4002,0 C9.0632,0 9.6002,0.537 9.6002,1.2 L9.6002,2.4 C9.6002,4.107 9.2412,5.73 8.5982,7.2 L18.0002,7.2 Z" id="Fill-1" fill="#337DBC" mask="url(#mask-2)"></path>
            </g>
            <g id="Group-6" transform="translate(35.000000, 13.000000)">
                <mask id="mask-4" fill="white">
                    <use xlink:href="#path-3"></use>
                </mask>
                <g id="Clip-5"></g>
                <path d="M11.8004,0.2002 C13.7874,0.2002 15.4004,1.8112 15.4004,3.8002 L15.4004,6.2002 C15.4004,8.1882 13.7874,9.8002 11.8004,9.8002 L6.9994,9.8002 C6.3374,9.8002 5.8004,9.2632 5.8004,8.5992 C5.8004,7.9372 6.3374,7.4002 6.9994,7.4002 L11.8004,7.4002 C12.4624,7.4002 12.9994,6.8622 12.9994,6.2002 L12.9994,3.8002 C12.9994,3.1372 12.4624,2.5992 11.8004,2.5992 L4.6004,2.5992 C3.9374,2.5992 3.4004,3.1372 3.4004,3.8002 L3.4004,9.8002 C3.4004,10.4632 2.8624,11.0002 2.1994,11.0002 C1.5364,11.0002 0.9994,10.4632 0.9994,9.8002 L0.9994,3.8002 C0.9994,1.8112 2.6124,0.2002 4.6004,0.2002 L11.8004,0.2002 Z" id="Fill-4" fill="#50C286" mask="url(#mask-4)"></path>
            </g>
        </g>
    </g>
</svg>